<svg id="google-plus-logo-on-black-background" xmlns="http://www.w3.org/2000/svg" width="510" height="510" viewBox="0 0 510 510">
  <g id="post-gplus">
    <path id="Path_1" data-name="Path 1" d="M234.6,175.95c0-25.5-15.3-76.5-53.55-76.5-15.3,0-33.15,10.2-33.15,43.35,0,30.6,15.3,73.95,51,73.95C198.9,216.75,234.6,214.2,234.6,175.95ZM219.3,300.9h-7.65c-7.65,0-30.6,2.55-45.9,7.649C147.9,313.65,127.5,326.4,127.5,351.9c0,28.05,25.5,56.1,76.5,56.1,38.25,0,61.2-25.5,61.2-51C265.2,339.15,252.45,326.4,219.3,300.9ZM459,0H51A51.15,51.15,0,0,0,0,51V459a51.15,51.15,0,0,0,51,51H459a51.15,51.15,0,0,0,51-51V51A51.15,51.15,0,0,0,459,0ZM181.05,438.6c-71.4,0-104.55-40.8-104.55-76.5,0-12.75,2.55-40.8,38.25-61.2,20.4-12.75,45.9-20.4,79.05-22.95-5.1-5.1-7.65-12.75-7.65-25.5,0-5.1,0-7.65,2.55-12.75H178.5c-51,0-81.6-38.25-81.6-76.5,0-43.35,33.15-91.8,104.55-91.8h107.1l-7.649,7.65L283.05,96.9l-2.55,2.55H262.65c10.2,10.2,22.949,28.05,22.949,56.1,0,35.7-17.85,53.55-40.8,68.85-5.1,2.55-10.2,10.2-10.2,17.85s5.1,12.75,10.2,15.3c2.55,2.55,7.65,5.1,12.75,7.65,20.4,15.3,48.45,33.149,48.45,73.95C306,385.05,272.85,438.6,181.05,438.6ZM433.5,255h-51v51H357V255H306V229.5h51v-51h25.5v51h51Z" fill="#fff"/>
  </g>
</svg>
