<svg xmlns="http://www.w3.org/2000/svg" width="60.725" height="60.725" viewBox="0 0 60.725 60.725">
  <g id="right-arrow-circular-button-outline" transform="translate(-5 20)">
    <g id="_x35__2_" transform="translate(5 -20)">
      <g id="Group_1" data-name="Group 1">
        <path id="Path_2" data-name="Path 2" d="M42.766,28.694,32.031,17.959a1.9,1.9,0,1,0-2.683,2.683l7.82,7.822H17.079a1.9,1.9,0,0,0,0,3.8H37.167l-7.82,7.82a1.9,1.9,0,1,0,2.683,2.683L42.766,32.029a1.867,1.867,0,0,0,.493-1.668A1.871,1.871,0,0,0,42.766,28.694ZM30.363,0A30.363,30.363,0,1,0,60.725,30.363,30.361,30.361,0,0,0,30.363,0Zm0,56.93A26.567,26.567,0,1,1,56.93,30.363,26.567,26.567,0,0,1,30.363,56.93Z"/>
      </g>
    </g>
  </g>
</svg>
